<svg xmlns="http://www.w3.org/2000/svg" xmlns:xlink="http://www.w3.org/1999/xlink" width="500" zoomAndPan="magnify" viewBox="0 0 375 374.999991" height="500" preserveAspectRatio="xMidYMid meet" version="1.0"><defs><filter x="0%" y="0%" width="100%" height="100%" id="164a5da650"><feColorMatrix values="0 0 0 0 1 0 0 0 0 1 0 0 0 0 1 0 0 0 1 0" color-interpolation-filters="sRGB"/></filter><g/><clipPath id="96b5243a3d"><path d="M 165 124.492188 L 226.335938 124.492188 L 226.335938 186 L 165 186 Z M 165 124.492188 " clip-rule="nonzero"/></clipPath><mask id="f8efafb9ad"><g filter="url(#164a5da650)"><rect x="-37.5" width="450" fill="#000000" y="-37.499999" height="449.999989" fill-opacity="0.698"/></g></mask><clipPath id="a65e5f9f15"><path d="M 0.121094 0.492188 L 61.335938 0.492188 L 61.335938 61.519531 L 0.121094 61.519531 Z M 0.121094 0.492188 " clip-rule="nonzero"/></clipPath><clipPath id="0cd10c2e34"><rect x="0" width="62" y="0" height="62"/></clipPath><clipPath id="777f267e90"><path d="M 148.335938 124.492188 L 210 124.492188 L 210 186 L 148.335938 186 Z M 148.335938 124.492188 " clip-rule="nonzero"/></clipPath><mask id="ade1888ccc"><g filter="url(#164a5da650)"><rect x="-37.5" width="450" fill="#000000" y="-37.499999" height="449.999989" fill-opacity="0.698"/></g></mask><clipPath id="8a391e66db"><path d="M 0.335938 0.492188 L 61.519531 0.492188 L 61.519531 61.519531 L 0.335938 61.519531 Z M 0.335938 0.492188 " clip-rule="nonzero"/></clipPath><clipPath id="0cdd9a3511"><rect x="0" width="62" y="0" height="62"/></clipPath></defs><rect x="-37.5" width="450" fill="#ffffff" y="-37.499999" height="449.999989" fill-opacity="1"/><rect x="-37.5" width="450" fill="#ffffff" y="-37.499999" height="449.999989" fill-opacity="1"/><rect x="-37.5" width="450" fill="#ffffff" y="-37.499999" height="449.999989" fill-opacity="1"/><g fill="#0a3f5f" fill-opacity="1"><g transform="translate(102.992414, 220.729058)"><g><path d="M 15.996094 -26.066406 C 14.667969 -26.214844 14.058594 -26.214844 12.652344 -26.214844 L 3.230469 -26.214844 L 3.230469 0 L 12.613281 0 C 14.019531 0 14.628906 0 15.957031 -0.152344 C 22.035156 -0.875 26.9375 -5.355469 26.9375 -13.449219 C 26.9375 -21.542969 22.074219 -25.378906 15.996094 -26.066406 Z M 14.515625 -4.75 C 13.640625 -4.671875 12.957031 -4.671875 11.855469 -4.671875 L 9.195312 -4.671875 L 9.195312 -21.582031 L 11.890625 -21.582031 C 12.996094 -21.582031 13.679688 -21.542969 14.550781 -21.46875 C 18.238281 -21.050781 20.667969 -18.3125 20.667969 -13.375 C 20.667969 -8.320312 18.199219 -5.167969 14.515625 -4.75 Z M 14.515625 -4.75 "/></g></g></g><g fill="#0a3f5f" fill-opacity="1"><g transform="translate(127.838669, 220.729058)"><g><path d="M 14.058594 0 L 19.871094 0 C 19.566406 -2.242188 19.492188 -3.609375 19.492188 -5.128906 L 19.492188 -11.285156 C 19.492188 -12.460938 19.453125 -13.601562 19.378906 -14.550781 C 19.074219 -18.160156 16.90625 -20.785156 10.90625 -20.785156 C 5.964844 -20.785156 2.050781 -18.160156 1.9375 -13.527344 L 7.636719 -13.527344 C 7.789062 -15.539062 8.816406 -16.679688 10.675781 -16.679688 C 12.460938 -16.679688 13.375 -15.691406 13.488281 -14.476562 C 13.5625 -13.792969 13.5625 -13.261719 13.5625 -12.726562 L 13.5625 -12.386719 L 12.273438 -12.386719 C 5.128906 -12.386719 1.214844 -9.800781 1.214844 -5.394531 C 1.214844 -1.558594 4.292969 0.53125 7.714844 0.53125 C 9.574219 0.53125 11.285156 0.113281 12.726562 -0.796875 L 13.640625 -2.964844 Z M 10.070312 -3.570312 C 8.433594 -3.570312 7.332031 -4.371094 7.332031 -5.890625 C 7.332031 -8.246094 9.878906 -9.15625 13.5625 -8.851562 L 13.5625 -7.371094 C 13.5625 -4.863281 11.855469 -3.570312 10.070312 -3.570312 Z M 10.070312 -3.570312 "/></g></g></g><g fill="#0a3f5f" fill-opacity="1"><g transform="translate(146.378222, 220.729058)"><g><path d="M 22.378906 -20.25 L 15.882812 -20.25 L 11.285156 -4.597656 L 6.648438 -20.25 L 0 -20.25 L 8.320312 0.910156 L 8.054688 1.558594 C 7.296875 3.304688 6.15625 3.914062 4.445312 3.914062 C 3.835938 3.914062 3.304688 3.914062 2.773438 3.835938 L 2.773438 7.828125 C 3.609375 7.941406 4.332031 7.980469 5.355469 7.980469 C 9.765625 7.980469 11.96875 6.308594 14.285156 0.417969 Z M 22.378906 -20.25 "/></g></g></g><g fill="#0a3f5f" fill-opacity="1"><g transform="translate(165.335691, 220.729058)"><g><path d="M 19.300781 -14.171875 C 21.921875 -15.085938 23.289062 -16.90625 23.289062 -19.453125 C 23.289062 -22.949219 20.859375 -25.53125 16.605469 -26.066406 C 15.273438 -26.214844 14.589844 -26.214844 13.222656 -26.214844 L 3.230469 -26.214844 L 3.230469 0 L 13.183594 0 C 14.742188 0 15.617188 0 16.90625 -0.152344 C 20.441406 -0.609375 24.242188 -3 24.242188 -7.863281 C 24.242188 -11.171875 22.644531 -13.296875 19.300781 -14.171875 Z M 9.195312 -21.582031 L 12.652344 -21.582031 C 13.261719 -21.582031 13.945312 -21.542969 14.476562 -21.46875 C 16.035156 -21.238281 17.058594 -20.402344 17.058594 -18.65625 C 17.058594 -16.90625 16.148438 -16.035156 14.515625 -15.769531 C 13.980469 -15.691406 13.375 -15.652344 12.765625 -15.652344 L 9.195312 -15.652344 Z M 15.085938 -4.710938 C 14.589844 -4.671875 13.980469 -4.671875 13.375 -4.671875 L 9.195312 -4.671875 L 9.195312 -11.285156 L 13.144531 -11.285156 C 13.753906 -11.285156 14.363281 -11.285156 14.96875 -11.207031 C 16.640625 -11.054688 18.007812 -10.070312 18.007812 -7.941406 C 18.007812 -5.964844 16.640625 -4.824219 15.085938 -4.710938 Z M 15.085938 -4.710938 "/></g></g></g><g fill="#0a3f5f" fill-opacity="1"><g transform="translate(187.484505, 220.729058)"><g><path d="M 22.378906 -20.25 L 15.882812 -20.25 L 11.285156 -4.597656 L 6.648438 -20.25 L 0 -20.25 L 8.320312 0.910156 L 8.054688 1.558594 C 7.296875 3.304688 6.15625 3.914062 4.445312 3.914062 C 3.835938 3.914062 3.304688 3.914062 2.773438 3.835938 L 2.773438 7.828125 C 3.609375 7.941406 4.332031 7.980469 5.355469 7.980469 C 9.765625 7.980469 11.96875 6.308594 14.285156 0.417969 Z M 22.378906 -20.25 "/></g></g></g><g fill="#0a3f5f" fill-opacity="1"><g transform="translate(206.441974, 220.729058)"><g><path d="M 15.996094 -26.066406 C 14.667969 -26.214844 14.058594 -26.214844 12.652344 -26.214844 L 3.230469 -26.214844 L 3.230469 0 L 12.613281 0 C 14.019531 0 14.628906 0 15.957031 -0.152344 C 22.035156 -0.875 26.9375 -5.355469 26.9375 -13.449219 C 26.9375 -21.542969 22.074219 -25.378906 15.996094 -26.066406 Z M 14.515625 -4.75 C 13.640625 -4.671875 12.957031 -4.671875 11.855469 -4.671875 L 9.195312 -4.671875 L 9.195312 -21.582031 L 11.890625 -21.582031 C 12.996094 -21.582031 13.679688 -21.542969 14.550781 -21.46875 C 18.238281 -21.050781 20.667969 -18.3125 20.667969 -13.375 C 20.667969 -8.320312 18.199219 -5.167969 14.515625 -4.75 Z M 14.515625 -4.75 "/></g></g></g><g fill="#0a3f5f" fill-opacity="1"><g transform="translate(231.288229, 220.729058)"><g><path d="M 14.058594 0 L 19.871094 0 C 19.566406 -2.242188 19.492188 -3.609375 19.492188 -5.128906 L 19.492188 -11.285156 C 19.492188 -12.460938 19.453125 -13.601562 19.378906 -14.550781 C 19.074219 -18.160156 16.90625 -20.785156 10.90625 -20.785156 C 5.964844 -20.785156 2.050781 -18.160156 1.9375 -13.527344 L 7.636719 -13.527344 C 7.789062 -15.539062 8.816406 -16.679688 10.675781 -16.679688 C 12.460938 -16.679688 13.375 -15.691406 13.488281 -14.476562 C 13.5625 -13.792969 13.5625 -13.261719 13.5625 -12.726562 L 13.5625 -12.386719 L 12.273438 -12.386719 C 5.128906 -12.386719 1.214844 -9.800781 1.214844 -5.394531 C 1.214844 -1.558594 4.292969 0.53125 7.714844 0.53125 C 9.574219 0.53125 11.285156 0.113281 12.726562 -0.796875 L 13.640625 -2.964844 Z M 10.070312 -3.570312 C 8.433594 -3.570312 7.332031 -4.371094 7.332031 -5.890625 C 7.332031 -8.246094 9.878906 -9.15625 13.5625 -8.851562 L 13.5625 -7.371094 C 13.5625 -4.863281 11.855469 -3.570312 10.070312 -3.570312 Z M 10.070312 -3.570312 "/></g></g></g><g fill="#0a3f5f" fill-opacity="1"><g transform="translate(249.827782, 220.729058)"><g><path d="M 22.378906 -20.25 L 15.882812 -20.25 L 11.285156 -4.597656 L 6.648438 -20.25 L 0 -20.25 L 8.320312 0.910156 L 8.054688 1.558594 C 7.296875 3.304688 6.15625 3.914062 4.445312 3.914062 C 3.835938 3.914062 3.304688 3.914062 2.773438 3.835938 L 2.773438 7.828125 C 3.609375 7.941406 4.332031 7.980469 5.355469 7.980469 C 9.765625 7.980469 11.96875 6.308594 14.285156 0.417969 Z M 22.378906 -20.25 "/></g></g></g><g fill="#545454" fill-opacity="1"><g transform="translate(104.081594, 241.770745)"><g><path d="M 6.375 -3.296875 C 6.375 -2.597656 6.242188 -1.992188 5.984375 -1.484375 C 5.734375 -0.984375 5.390625 -0.59375 4.953125 -0.3125 C 4.515625 -0.0390625 4.015625 0.09375 3.453125 0.09375 C 2.890625 0.09375 2.390625 -0.0390625 1.953125 -0.3125 C 1.515625 -0.59375 1.171875 -0.984375 0.921875 -1.484375 C 0.671875 -1.992188 0.546875 -2.597656 0.546875 -3.296875 C 0.546875 -3.992188 0.671875 -4.59375 0.921875 -5.09375 C 1.171875 -5.601562 1.515625 -5.992188 1.953125 -6.265625 C 2.390625 -6.546875 2.890625 -6.6875 3.453125 -6.6875 C 4.015625 -6.6875 4.515625 -6.546875 4.953125 -6.265625 C 5.390625 -5.992188 5.734375 -5.601562 5.984375 -5.09375 C 6.242188 -4.59375 6.375 -3.992188 6.375 -3.296875 Z M 5.59375 -3.296875 C 5.59375 -3.867188 5.5 -4.351562 5.3125 -4.75 C 5.125 -5.144531 4.867188 -5.441406 4.546875 -5.640625 C 4.222656 -5.835938 3.859375 -5.9375 3.453125 -5.9375 C 3.054688 -5.9375 2.695312 -5.835938 2.375 -5.640625 C 2.050781 -5.441406 1.789062 -5.144531 1.59375 -4.75 C 1.40625 -4.351562 1.3125 -3.867188 1.3125 -3.296875 C 1.3125 -2.722656 1.40625 -2.238281 1.59375 -1.84375 C 1.789062 -1.457031 2.050781 -1.160156 2.375 -0.953125 C 2.695312 -0.753906 3.054688 -0.65625 3.453125 -0.65625 C 3.859375 -0.65625 4.222656 -0.753906 4.546875 -0.953125 C 4.867188 -1.160156 5.125 -1.457031 5.3125 -1.84375 C 5.5 -2.238281 5.59375 -2.722656 5.59375 -3.296875 Z M 5.59375 -3.296875 "/></g></g></g><g fill="#545454" fill-opacity="1"><g transform="translate(112.103688, 241.770745)"><g><path d="M 0.703125 0 L 0.703125 -4.953125 L 1.4375 -4.953125 L 1.4375 -4.203125 L 1.484375 -4.203125 C 1.566406 -4.453125 1.726562 -4.648438 1.96875 -4.796875 C 2.207031 -4.953125 2.472656 -5.03125 2.765625 -5.03125 C 2.910156 -5.03125 3.03125 -5.015625 3.125 -4.984375 C 3.226562 -4.953125 3.320312 -4.90625 3.40625 -4.84375 L 3.140625 -4.203125 C 3.085938 -4.234375 3.023438 -4.253906 2.953125 -4.265625 C 2.878906 -4.285156 2.796875 -4.296875 2.703125 -4.296875 C 2.347656 -4.296875 2.050781 -4.1875 1.8125 -3.96875 C 1.570312 -3.75 1.453125 -3.472656 1.453125 -3.140625 L 1.453125 0 Z M 0.703125 0 "/></g></g></g><g fill="#545454" fill-opacity="1"><g transform="translate(116.698654, 241.770745)"><g><path d="M 2.6875 1.953125 C 2.132812 1.953125 1.695312 1.851562 1.375 1.65625 C 1.0625 1.457031 0.828125 1.226562 0.671875 0.96875 L 1.28125 0.546875 C 1.34375 0.628906 1.425781 0.726562 1.53125 0.84375 C 1.644531 0.96875 1.789062 1.070312 1.96875 1.15625 C 2.15625 1.25 2.394531 1.296875 2.6875 1.296875 C 3.09375 1.296875 3.425781 1.195312 3.6875 1 C 3.945312 0.800781 4.078125 0.5 4.078125 0.09375 L 4.078125 -0.921875 L 4.015625 -0.921875 C 3.953125 -0.828125 3.867188 -0.710938 3.765625 -0.578125 C 3.671875 -0.453125 3.523438 -0.335938 3.328125 -0.234375 C 3.140625 -0.128906 2.882812 -0.078125 2.5625 -0.078125 C 2.164062 -0.078125 1.804688 -0.171875 1.484375 -0.359375 C 1.171875 -0.546875 0.921875 -0.820312 0.734375 -1.1875 C 0.554688 -1.550781 0.46875 -1.988281 0.46875 -2.5 C 0.46875 -3.007812 0.554688 -3.453125 0.734375 -3.828125 C 0.910156 -4.203125 1.15625 -4.492188 1.46875 -4.703125 C 1.789062 -4.910156 2.160156 -5.015625 2.578125 -5.015625 C 2.898438 -5.015625 3.15625 -4.960938 3.34375 -4.859375 C 3.539062 -4.753906 3.6875 -4.632812 3.78125 -4.5 C 3.882812 -4.363281 3.960938 -4.253906 4.015625 -4.171875 L 4.09375 -4.171875 L 4.09375 -4.953125 L 4.828125 -4.953125 L 4.828125 0.140625 C 4.828125 0.566406 4.734375 0.910156 4.546875 1.171875 C 4.359375 1.441406 4.097656 1.640625 3.765625 1.765625 C 3.441406 1.890625 3.082031 1.953125 2.6875 1.953125 Z M 2.671875 -0.765625 C 3.128906 -0.765625 3.476562 -0.914062 3.71875 -1.21875 C 3.96875 -1.53125 4.09375 -1.960938 4.09375 -2.515625 C 4.09375 -3.046875 3.96875 -3.476562 3.71875 -3.8125 C 3.476562 -4.15625 3.128906 -4.328125 2.671875 -4.328125 C 2.347656 -4.328125 2.078125 -4.242188 1.859375 -4.078125 C 1.648438 -3.921875 1.488281 -3.703125 1.375 -3.421875 C 1.269531 -3.148438 1.21875 -2.847656 1.21875 -2.515625 C 1.21875 -1.992188 1.335938 -1.570312 1.578125 -1.25 C 1.828125 -0.925781 2.191406 -0.765625 2.671875 -0.765625 Z M 2.671875 -0.765625 "/></g></g></g><g fill="#545454" fill-opacity="1"><g transform="translate(123.342171, 241.770745)"><g><path d="M 2.15625 0.109375 C 1.84375 0.109375 1.554688 0.0507812 1.296875 -0.0625 C 1.046875 -0.175781 0.84375 -0.347656 0.6875 -0.578125 C 0.539062 -0.804688 0.46875 -1.082031 0.46875 -1.40625 C 0.46875 -1.6875 0.519531 -1.914062 0.625 -2.09375 C 0.738281 -2.269531 0.890625 -2.410156 1.078125 -2.515625 C 1.265625 -2.617188 1.472656 -2.691406 1.703125 -2.734375 C 1.929688 -2.785156 2.160156 -2.828125 2.390625 -2.859375 C 2.691406 -2.898438 2.9375 -2.929688 3.125 -2.953125 C 3.3125 -2.972656 3.445312 -3.003906 3.53125 -3.046875 C 3.613281 -3.097656 3.65625 -3.1875 3.65625 -3.3125 L 3.65625 -3.34375 C 3.65625 -3.65625 3.566406 -3.898438 3.390625 -4.078125 C 3.222656 -4.253906 2.96875 -4.34375 2.625 -4.34375 C 2.257812 -4.34375 1.972656 -4.265625 1.765625 -4.109375 C 1.554688 -3.953125 1.410156 -3.78125 1.328125 -3.59375 L 0.609375 -3.859375 C 0.734375 -4.160156 0.90625 -4.394531 1.125 -4.5625 C 1.34375 -4.726562 1.578125 -4.84375 1.828125 -4.90625 C 2.085938 -4.976562 2.34375 -5.015625 2.59375 -5.015625 C 2.75 -5.015625 2.929688 -4.992188 3.140625 -4.953125 C 3.347656 -4.921875 3.546875 -4.847656 3.734375 -4.734375 C 3.929688 -4.617188 4.09375 -4.441406 4.21875 -4.203125 C 4.351562 -3.972656 4.421875 -3.660156 4.421875 -3.265625 L 4.421875 0 L 3.65625 0 L 3.65625 -0.671875 L 3.625 -0.671875 C 3.570312 -0.566406 3.484375 -0.453125 3.359375 -0.328125 C 3.242188 -0.203125 3.082031 -0.0976562 2.875 -0.015625 C 2.675781 0.0664062 2.4375 0.109375 2.15625 0.109375 Z M 2.265625 -0.5625 C 2.566406 -0.5625 2.820312 -0.617188 3.03125 -0.734375 C 3.238281 -0.859375 3.394531 -1.015625 3.5 -1.203125 C 3.601562 -1.390625 3.65625 -1.585938 3.65625 -1.796875 L 3.65625 -2.484375 C 3.625 -2.453125 3.550781 -2.421875 3.4375 -2.390625 C 3.332031 -2.359375 3.207031 -2.328125 3.0625 -2.296875 C 2.925781 -2.273438 2.789062 -2.253906 2.65625 -2.234375 C 2.53125 -2.222656 2.425781 -2.210938 2.34375 -2.203125 C 2.144531 -2.179688 1.957031 -2.140625 1.78125 -2.078125 C 1.613281 -2.023438 1.476562 -1.941406 1.375 -1.828125 C 1.269531 -1.710938 1.21875 -1.554688 1.21875 -1.359375 C 1.21875 -1.097656 1.316406 -0.898438 1.515625 -0.765625 C 1.710938 -0.628906 1.960938 -0.5625 2.265625 -0.5625 Z M 2.265625 -0.5625 "/></g></g></g><g fill="#545454" fill-opacity="1"><g transform="translate(129.573401, 241.770745)"><g><path d="M 1.453125 -2.984375 L 1.453125 0 L 0.703125 0 L 0.703125 -4.953125 L 1.4375 -4.953125 L 1.4375 -4.171875 L 1.5 -4.171875 C 1.613281 -4.429688 1.785156 -4.632812 2.015625 -4.78125 C 2.253906 -4.9375 2.5625 -5.015625 2.9375 -5.015625 C 3.4375 -5.015625 3.835938 -4.859375 4.140625 -4.546875 C 4.453125 -4.242188 4.609375 -3.773438 4.609375 -3.140625 L 4.609375 0 L 3.859375 0 L 3.859375 -3.09375 C 3.859375 -3.476562 3.753906 -3.78125 3.546875 -4 C 3.347656 -4.21875 3.070312 -4.328125 2.71875 -4.328125 C 2.351562 -4.328125 2.050781 -4.207031 1.8125 -3.96875 C 1.570312 -3.738281 1.453125 -3.410156 1.453125 -2.984375 Z M 1.453125 -2.984375 "/></g></g></g><g fill="#545454" fill-opacity="1"><g transform="translate(135.997888, 241.770745)"><g><path d="M 0.703125 0 L 0.703125 -4.953125 L 1.453125 -4.953125 L 1.453125 0 Z M 1.078125 -5.78125 C 0.929688 -5.78125 0.804688 -5.828125 0.703125 -5.921875 C 0.597656 -6.023438 0.546875 -6.148438 0.546875 -6.296875 C 0.546875 -6.429688 0.597656 -6.550781 0.703125 -6.65625 C 0.804688 -6.757812 0.929688 -6.8125 1.078125 -6.8125 C 1.234375 -6.8125 1.363281 -6.757812 1.46875 -6.65625 C 1.570312 -6.550781 1.625 -6.429688 1.625 -6.296875 C 1.625 -6.148438 1.570312 -6.023438 1.46875 -5.921875 C 1.363281 -5.828125 1.234375 -5.78125 1.078125 -5.78125 Z M 1.078125 -5.78125 "/></g></g></g><g fill="#545454" fill-opacity="1"><g transform="translate(139.265819, 241.770745)"><g><path d="M 0.546875 0 L 0.546875 -0.578125 L 3.359375 -4.1875 L 3.359375 -4.25 L 0.640625 -4.25 L 0.640625 -4.953125 L 4.34375 -4.953125 L 4.34375 -4.34375 L 1.609375 -0.765625 L 1.609375 -0.703125 L 4.4375 -0.703125 L 4.4375 0 Z M 0.546875 0 "/></g></g></g><g fill="#545454" fill-opacity="1"><g transform="translate(145.290907, 241.770745)"><g><path d="M 0.546875 0 L 0.546875 -0.578125 L 3.359375 -4.1875 L 3.359375 -4.25 L 0.640625 -4.25 L 0.640625 -4.953125 L 4.34375 -4.953125 L 4.34375 -4.34375 L 1.609375 -0.765625 L 1.609375 -0.703125 L 4.4375 -0.703125 L 4.4375 0 Z M 0.546875 0 "/></g></g></g><g fill="#545454" fill-opacity="1"><g transform="translate(151.315995, 241.770745)"><g><path d="M 2.15625 0.109375 C 1.84375 0.109375 1.554688 0.0507812 1.296875 -0.0625 C 1.046875 -0.175781 0.84375 -0.347656 0.6875 -0.578125 C 0.539062 -0.804688 0.46875 -1.082031 0.46875 -1.40625 C 0.46875 -1.6875 0.519531 -1.914062 0.625 -2.09375 C 0.738281 -2.269531 0.890625 -2.410156 1.078125 -2.515625 C 1.265625 -2.617188 1.472656 -2.691406 1.703125 -2.734375 C 1.929688 -2.785156 2.160156 -2.828125 2.390625 -2.859375 C 2.691406 -2.898438 2.9375 -2.929688 3.125 -2.953125 C 3.3125 -2.972656 3.445312 -3.003906 3.53125 -3.046875 C 3.613281 -3.097656 3.65625 -3.1875 3.65625 -3.3125 L 3.65625 -3.34375 C 3.65625 -3.65625 3.566406 -3.898438 3.390625 -4.078125 C 3.222656 -4.253906 2.96875 -4.34375 2.625 -4.34375 C 2.257812 -4.34375 1.972656 -4.265625 1.765625 -4.109375 C 1.554688 -3.953125 1.410156 -3.78125 1.328125 -3.59375 L 0.609375 -3.859375 C 0.734375 -4.160156 0.90625 -4.394531 1.125 -4.5625 C 1.34375 -4.726562 1.578125 -4.84375 1.828125 -4.90625 C 2.085938 -4.976562 2.34375 -5.015625 2.59375 -5.015625 C 2.75 -5.015625 2.929688 -4.992188 3.140625 -4.953125 C 3.347656 -4.921875 3.546875 -4.847656 3.734375 -4.734375 C 3.929688 -4.617188 4.09375 -4.441406 4.21875 -4.203125 C 4.351562 -3.972656 4.421875 -3.660156 4.421875 -3.265625 L 4.421875 0 L 3.65625 0 L 3.65625 -0.671875 L 3.625 -0.671875 C 3.570312 -0.566406 3.484375 -0.453125 3.359375 -0.328125 C 3.242188 -0.203125 3.082031 -0.0976562 2.875 -0.015625 C 2.675781 0.0664062 2.4375 0.109375 2.15625 0.109375 Z M 2.265625 -0.5625 C 2.566406 -0.5625 2.820312 -0.617188 3.03125 -0.734375 C 3.238281 -0.859375 3.394531 -1.015625 3.5 -1.203125 C 3.601562 -1.390625 3.65625 -1.585938 3.65625 -1.796875 L 3.65625 -2.484375 C 3.625 -2.453125 3.550781 -2.421875 3.4375 -2.390625 C 3.332031 -2.359375 3.207031 -2.328125 3.0625 -2.296875 C 2.925781 -2.273438 2.789062 -2.253906 2.65625 -2.234375 C 2.53125 -2.222656 2.425781 -2.210938 2.34375 -2.203125 C 2.144531 -2.179688 1.957031 -2.140625 1.78125 -2.078125 C 1.613281 -2.023438 1.476562 -1.941406 1.375 -1.828125 C 1.269531 -1.710938 1.21875 -1.554688 1.21875 -1.359375 C 1.21875 -1.097656 1.316406 -0.898438 1.515625 -0.765625 C 1.710938 -0.628906 1.960938 -0.5625 2.265625 -0.5625 Z M 2.265625 -0.5625 "/></g></g></g><g fill="#545454" fill-opacity="1"><g transform="translate(157.547226, 241.770745)"><g/></g></g><g fill="#545454" fill-opacity="1"><g transform="translate(161.214559, 241.770745)"><g><path d="M 3.53125 -3.1875 L 3.53125 -2.46875 L 0.640625 -2.46875 L 0.640625 -3.1875 Z M 3.53125 -3.1875 "/></g></g></g><g fill="#545454" fill-opacity="1"><g transform="translate(166.505259, 241.770745)"><g/></g></g><g fill="#545454" fill-opacity="1"><g transform="translate(170.172593, 241.770745)"><g><path d="M 5.3125 -4.53125 C 5.175781 -4.96875 4.945312 -5.3125 4.625 -5.5625 C 4.300781 -5.8125 3.90625 -5.9375 3.4375 -5.9375 C 3.039062 -5.9375 2.679688 -5.835938 2.359375 -5.640625 C 2.035156 -5.441406 1.78125 -5.144531 1.59375 -4.75 C 1.40625 -4.351562 1.3125 -3.867188 1.3125 -3.296875 C 1.3125 -2.722656 1.40625 -2.238281 1.59375 -1.84375 C 1.789062 -1.457031 2.050781 -1.160156 2.375 -0.953125 C 2.707031 -0.753906 3.078125 -0.65625 3.484375 -0.65625 C 3.859375 -0.65625 4.1875 -0.734375 4.46875 -0.890625 C 4.757812 -1.046875 4.984375 -1.269531 5.140625 -1.5625 C 5.304688 -1.851562 5.394531 -2.195312 5.40625 -2.59375 L 3.65625 -2.59375 L 3.65625 -3.296875 L 6.171875 -3.296875 L 6.171875 -2.59375 C 6.171875 -2.050781 6.054688 -1.578125 5.828125 -1.171875 C 5.597656 -0.773438 5.28125 -0.460938 4.875 -0.234375 C 4.46875 -0.015625 4.003906 0.09375 3.484375 0.09375 C 2.898438 0.09375 2.382812 -0.0390625 1.9375 -0.3125 C 1.5 -0.59375 1.15625 -0.984375 0.90625 -1.484375 C 0.664062 -1.992188 0.546875 -2.597656 0.546875 -3.296875 C 0.546875 -3.992188 0.664062 -4.59375 0.90625 -5.09375 C 1.15625 -5.601562 1.492188 -5.992188 1.921875 -6.265625 C 2.359375 -6.546875 2.863281 -6.6875 3.4375 -6.6875 C 3.894531 -6.6875 4.3125 -6.59375 4.6875 -6.40625 C 5.070312 -6.226562 5.390625 -5.976562 5.640625 -5.65625 C 5.890625 -5.332031 6.054688 -4.957031 6.140625 -4.53125 Z M 5.3125 -4.53125 "/></g></g></g><g fill="#545454" fill-opacity="1"><g transform="translate(178.027193, 241.770745)"><g><path d="M 2.765625 0.109375 C 2.296875 0.109375 1.882812 0.00390625 1.53125 -0.203125 C 1.1875 -0.421875 0.921875 -0.71875 0.734375 -1.09375 C 0.554688 -1.476562 0.46875 -1.925781 0.46875 -2.4375 C 0.46875 -2.945312 0.554688 -3.394531 0.734375 -3.78125 C 0.921875 -4.164062 1.179688 -4.46875 1.515625 -4.6875 C 1.859375 -4.90625 2.25 -5.015625 2.6875 -5.015625 C 2.945312 -5.015625 3.203125 -4.972656 3.453125 -4.890625 C 3.710938 -4.804688 3.941406 -4.664062 4.140625 -4.46875 C 4.347656 -4.28125 4.515625 -4.023438 4.640625 -3.703125 C 4.765625 -3.390625 4.828125 -3.003906 4.828125 -2.546875 L 4.828125 -2.21875 L 1.234375 -2.21875 C 1.242188 -1.6875 1.390625 -1.28125 1.671875 -1 C 1.960938 -0.71875 2.328125 -0.578125 2.765625 -0.578125 C 3.066406 -0.578125 3.320312 -0.640625 3.53125 -0.765625 C 3.75 -0.898438 3.910156 -1.097656 4.015625 -1.359375 L 4.75 -1.140625 C 4.632812 -0.773438 4.398438 -0.472656 4.046875 -0.234375 C 3.703125 -0.00390625 3.273438 0.109375 2.765625 0.109375 Z M 1.234375 -2.875 L 4.046875 -2.875 C 4.046875 -3.289062 3.921875 -3.632812 3.671875 -3.90625 C 3.429688 -4.1875 3.101562 -4.328125 2.6875 -4.328125 C 2.40625 -4.328125 2.15625 -4.257812 1.9375 -4.125 C 1.726562 -3.988281 1.5625 -3.8125 1.4375 -3.59375 C 1.3125 -3.375 1.242188 -3.132812 1.234375 -2.875 Z M 1.234375 -2.875 "/></g></g></g><g fill="#545454" fill-opacity="1"><g transform="translate(184.425911, 241.770745)"><g><path d="M 4.203125 -3.84375 L 3.515625 -3.65625 C 3.453125 -3.820312 3.34375 -3.976562 3.1875 -4.125 C 3.03125 -4.28125 2.785156 -4.359375 2.453125 -4.359375 C 2.148438 -4.359375 1.894531 -4.285156 1.6875 -4.140625 C 1.488281 -4.003906 1.390625 -3.832031 1.390625 -3.625 C 1.390625 -3.4375 1.457031 -3.285156 1.59375 -3.171875 C 1.738281 -3.066406 1.957031 -2.976562 2.25 -2.90625 L 2.984375 -2.71875 C 3.859375 -2.5 4.296875 -2.050781 4.296875 -1.375 C 4.296875 -1.09375 4.210938 -0.835938 4.046875 -0.609375 C 3.890625 -0.390625 3.664062 -0.210938 3.375 -0.078125 C 3.082031 0.046875 2.742188 0.109375 2.359375 0.109375 C 1.859375 0.109375 1.441406 0 1.109375 -0.21875 C 0.773438 -0.4375 0.566406 -0.757812 0.484375 -1.1875 L 1.203125 -1.359375 C 1.335938 -0.828125 1.71875 -0.5625 2.34375 -0.5625 C 2.695312 -0.5625 2.976562 -0.632812 3.1875 -0.78125 C 3.394531 -0.9375 3.5 -1.125 3.5 -1.34375 C 3.5 -1.6875 3.253906 -1.914062 2.765625 -2.03125 L 1.953125 -2.234375 C 1.492188 -2.335938 1.15625 -2.503906 0.9375 -2.734375 C 0.726562 -2.960938 0.625 -3.242188 0.625 -3.578125 C 0.625 -3.859375 0.703125 -4.109375 0.859375 -4.328125 C 1.023438 -4.546875 1.242188 -4.710938 1.515625 -4.828125 C 1.785156 -4.953125 2.097656 -5.015625 2.453125 -5.015625 C 2.941406 -5.015625 3.328125 -4.90625 3.609375 -4.6875 C 3.890625 -4.476562 4.085938 -4.195312 4.203125 -3.84375 Z M 4.203125 -3.84375 "/></g></g></g><g fill="#545454" fill-opacity="1"><g transform="translate(190.283506, 241.770745)"><g><path d="M 2.84375 -4.953125 L 2.84375 -4.3125 L 1.796875 -4.3125 L 1.796875 -1.421875 C 1.796875 -1.203125 1.828125 -1.039062 1.890625 -0.9375 C 1.953125 -0.832031 2.03125 -0.757812 2.125 -0.71875 C 2.226562 -0.6875 2.335938 -0.671875 2.453125 -0.671875 C 2.535156 -0.671875 2.601562 -0.675781 2.65625 -0.6875 C 2.707031 -0.695312 2.75 -0.703125 2.78125 -0.703125 L 2.9375 -0.03125 C 2.882812 -0.0078125 2.8125 0.0078125 2.71875 0.03125 C 2.625 0.0507812 2.507812 0.0625 2.375 0.0625 C 2.15625 0.0625 1.941406 0.015625 1.734375 -0.078125 C 1.535156 -0.171875 1.367188 -0.3125 1.234375 -0.5 C 1.097656 -0.6875 1.03125 -0.925781 1.03125 -1.21875 L 1.03125 -4.3125 L 0.28125 -4.3125 L 0.28125 -4.953125 L 1.03125 -4.953125 L 1.03125 -6.140625 L 1.796875 -6.140625 L 1.796875 -4.953125 Z M 2.84375 -4.953125 "/></g></g></g><g fill="#545454" fill-opacity="1"><g transform="translate(194.698104, 241.770745)"><g><path d="M 0.703125 0 L 0.703125 -4.953125 L 1.453125 -4.953125 L 1.453125 0 Z M 1.078125 -5.78125 C 0.929688 -5.78125 0.804688 -5.828125 0.703125 -5.921875 C 0.597656 -6.023438 0.546875 -6.148438 0.546875 -6.296875 C 0.546875 -6.429688 0.597656 -6.550781 0.703125 -6.65625 C 0.804688 -6.757812 0.929688 -6.8125 1.078125 -6.8125 C 1.234375 -6.8125 1.363281 -6.757812 1.46875 -6.65625 C 1.570312 -6.550781 1.625 -6.429688 1.625 -6.296875 C 1.625 -6.148438 1.570312 -6.023438 1.46875 -5.921875 C 1.363281 -5.828125 1.234375 -5.78125 1.078125 -5.78125 Z M 1.078125 -5.78125 "/></g></g></g><g fill="#545454" fill-opacity="1"><g transform="translate(197.966038, 241.770745)"><g><path d="M 4.203125 -3.84375 L 3.515625 -3.65625 C 3.453125 -3.820312 3.34375 -3.976562 3.1875 -4.125 C 3.03125 -4.28125 2.785156 -4.359375 2.453125 -4.359375 C 2.148438 -4.359375 1.894531 -4.285156 1.6875 -4.140625 C 1.488281 -4.003906 1.390625 -3.832031 1.390625 -3.625 C 1.390625 -3.4375 1.457031 -3.285156 1.59375 -3.171875 C 1.738281 -3.066406 1.957031 -2.976562 2.25 -2.90625 L 2.984375 -2.71875 C 3.859375 -2.5 4.296875 -2.050781 4.296875 -1.375 C 4.296875 -1.09375 4.210938 -0.835938 4.046875 -0.609375 C 3.890625 -0.390625 3.664062 -0.210938 3.375 -0.078125 C 3.082031 0.046875 2.742188 0.109375 2.359375 0.109375 C 1.859375 0.109375 1.441406 0 1.109375 -0.21875 C 0.773438 -0.4375 0.566406 -0.757812 0.484375 -1.1875 L 1.203125 -1.359375 C 1.335938 -0.828125 1.71875 -0.5625 2.34375 -0.5625 C 2.695312 -0.5625 2.976562 -0.632812 3.1875 -0.78125 C 3.394531 -0.9375 3.5 -1.125 3.5 -1.34375 C 3.5 -1.6875 3.253906 -1.914062 2.765625 -2.03125 L 1.953125 -2.234375 C 1.492188 -2.335938 1.15625 -2.503906 0.9375 -2.734375 C 0.726562 -2.960938 0.625 -3.242188 0.625 -3.578125 C 0.625 -3.859375 0.703125 -4.109375 0.859375 -4.328125 C 1.023438 -4.546875 1.242188 -4.710938 1.515625 -4.828125 C 1.785156 -4.953125 2.097656 -5.015625 2.453125 -5.015625 C 2.941406 -5.015625 3.328125 -4.90625 3.609375 -4.6875 C 3.890625 -4.476562 4.085938 -4.195312 4.203125 -3.84375 Z M 4.203125 -3.84375 "/></g></g></g><g fill="#545454" fill-opacity="1"><g transform="translate(203.823634, 241.770745)"><g><path d="M 2.703125 0.109375 C 2.242188 0.109375 1.84375 0 1.5 -0.21875 C 1.164062 -0.4375 0.910156 -0.738281 0.734375 -1.125 C 0.554688 -1.507812 0.46875 -1.953125 0.46875 -2.453125 C 0.46875 -2.953125 0.554688 -3.394531 0.734375 -3.78125 C 0.921875 -4.164062 1.179688 -4.46875 1.515625 -4.6875 C 1.859375 -4.90625 2.25 -5.015625 2.6875 -5.015625 C 3.039062 -5.015625 3.359375 -4.945312 3.640625 -4.8125 C 3.921875 -4.6875 4.148438 -4.507812 4.328125 -4.28125 C 4.503906 -4.050781 4.613281 -3.78125 4.65625 -3.46875 L 3.890625 -3.46875 C 3.835938 -3.695312 3.707031 -3.894531 3.5 -4.0625 C 3.300781 -4.238281 3.035156 -4.328125 2.703125 -4.328125 C 2.265625 -4.328125 1.90625 -4.15625 1.625 -3.8125 C 1.351562 -3.476562 1.21875 -3.03125 1.21875 -2.46875 C 1.21875 -1.894531 1.351562 -1.4375 1.625 -1.09375 C 1.894531 -0.75 2.253906 -0.578125 2.703125 -0.578125 C 3.003906 -0.578125 3.257812 -0.648438 3.46875 -0.796875 C 3.675781 -0.953125 3.816406 -1.164062 3.890625 -1.4375 L 4.65625 -1.4375 C 4.613281 -1.144531 4.503906 -0.882812 4.328125 -0.65625 C 4.160156 -0.425781 3.9375 -0.238281 3.65625 -0.09375 C 3.382812 0.0390625 3.066406 0.109375 2.703125 0.109375 Z M 2.703125 0.109375 "/></g></g></g><g fill="#545454" fill-opacity="1"><g transform="translate(210.003317, 241.770745)"><g><path d="M 0.703125 0 L 0.703125 -4.953125 L 1.453125 -4.953125 L 1.453125 0 Z M 1.078125 -5.78125 C 0.929688 -5.78125 0.804688 -5.828125 0.703125 -5.921875 C 0.597656 -6.023438 0.546875 -6.148438 0.546875 -6.296875 C 0.546875 -6.429688 0.597656 -6.550781 0.703125 -6.65625 C 0.804688 -6.757812 0.929688 -6.8125 1.078125 -6.8125 C 1.234375 -6.8125 1.363281 -6.757812 1.46875 -6.65625 C 1.570312 -6.550781 1.625 -6.429688 1.625 -6.296875 C 1.625 -6.148438 1.570312 -6.023438 1.46875 -5.921875 C 1.363281 -5.828125 1.234375 -5.78125 1.078125 -5.78125 Z M 1.078125 -5.78125 "/></g></g></g><g fill="#545454" fill-opacity="1"><g transform="translate(213.271246, 241.770745)"><g/></g></g><g fill="#545454" fill-opacity="1"><g transform="translate(216.938573, 241.770745)"><g><path d="M 3.53125 -3.1875 L 3.53125 -2.46875 L 0.640625 -2.46875 L 0.640625 -3.1875 Z M 3.53125 -3.1875 "/></g></g></g><g fill="#545454" fill-opacity="1"><g transform="translate(222.229268, 241.770745)"><g/></g></g><g fill="#545454" fill-opacity="1"><g transform="translate(225.896596, 241.770745)"><g><path d="M 0.796875 0 L 0.796875 -6.609375 L 3.03125 -6.609375 C 3.550781 -6.609375 3.972656 -6.515625 4.296875 -6.328125 C 4.628906 -6.140625 4.875 -5.882812 5.03125 -5.5625 C 5.195312 -5.25 5.28125 -4.898438 5.28125 -4.515625 C 5.28125 -4.117188 5.195312 -3.757812 5.03125 -3.4375 C 4.875 -3.125 4.628906 -2.875 4.296875 -2.6875 C 3.972656 -2.5 3.554688 -2.40625 3.046875 -2.40625 L 1.59375 -2.40625 L 1.59375 0 Z M 1.59375 -3.125 L 3.015625 -3.125 C 3.546875 -3.125 3.921875 -3.253906 4.140625 -3.515625 C 4.367188 -3.785156 4.484375 -4.117188 4.484375 -4.515625 C 4.484375 -4.910156 4.367188 -5.238281 4.140625 -5.5 C 3.921875 -5.757812 3.539062 -5.890625 3 -5.890625 L 1.59375 -5.890625 Z M 1.59375 -3.125 "/></g></g></g><g fill="#545454" fill-opacity="1"><g transform="translate(232.772011, 241.770745)"><g><path d="M 0.703125 0 L 0.703125 -4.953125 L 1.453125 -4.953125 L 1.453125 0 Z M 1.078125 -5.78125 C 0.929688 -5.78125 0.804688 -5.828125 0.703125 -5.921875 C 0.597656 -6.023438 0.546875 -6.148438 0.546875 -6.296875 C 0.546875 -6.429688 0.597656 -6.550781 0.703125 -6.65625 C 0.804688 -6.757812 0.929688 -6.8125 1.078125 -6.8125 C 1.234375 -6.8125 1.363281 -6.757812 1.46875 -6.65625 C 1.570312 -6.550781 1.625 -6.429688 1.625 -6.296875 C 1.625 -6.148438 1.570312 -6.023438 1.46875 -5.921875 C 1.363281 -5.828125 1.234375 -5.78125 1.078125 -5.78125 Z M 1.078125 -5.78125 "/></g></g></g><g fill="#545454" fill-opacity="1"><g transform="translate(236.03994, 241.770745)"><g><path d="M 2.15625 0.109375 C 1.84375 0.109375 1.554688 0.0507812 1.296875 -0.0625 C 1.046875 -0.175781 0.84375 -0.347656 0.6875 -0.578125 C 0.539062 -0.804688 0.46875 -1.082031 0.46875 -1.40625 C 0.46875 -1.6875 0.519531 -1.914062 0.625 -2.09375 C 0.738281 -2.269531 0.890625 -2.410156 1.078125 -2.515625 C 1.265625 -2.617188 1.472656 -2.691406 1.703125 -2.734375 C 1.929688 -2.785156 2.160156 -2.828125 2.390625 -2.859375 C 2.691406 -2.898438 2.9375 -2.929688 3.125 -2.953125 C 3.3125 -2.972656 3.445312 -3.003906 3.53125 -3.046875 C 3.613281 -3.097656 3.65625 -3.1875 3.65625 -3.3125 L 3.65625 -3.34375 C 3.65625 -3.65625 3.566406 -3.898438 3.390625 -4.078125 C 3.222656 -4.253906 2.96875 -4.34375 2.625 -4.34375 C 2.257812 -4.34375 1.972656 -4.265625 1.765625 -4.109375 C 1.554688 -3.953125 1.410156 -3.78125 1.328125 -3.59375 L 0.609375 -3.859375 C 0.734375 -4.160156 0.90625 -4.394531 1.125 -4.5625 C 1.34375 -4.726562 1.578125 -4.84375 1.828125 -4.90625 C 2.085938 -4.976562 2.34375 -5.015625 2.59375 -5.015625 C 2.75 -5.015625 2.929688 -4.992188 3.140625 -4.953125 C 3.347656 -4.921875 3.546875 -4.847656 3.734375 -4.734375 C 3.929688 -4.617188 4.09375 -4.441406 4.21875 -4.203125 C 4.351562 -3.972656 4.421875 -3.660156 4.421875 -3.265625 L 4.421875 0 L 3.65625 0 L 3.65625 -0.671875 L 3.625 -0.671875 C 3.570312 -0.566406 3.484375 -0.453125 3.359375 -0.328125 C 3.242188 -0.203125 3.082031 -0.0976562 2.875 -0.015625 C 2.675781 0.0664062 2.4375 0.109375 2.15625 0.109375 Z M 2.265625 -0.5625 C 2.566406 -0.5625 2.820312 -0.617188 3.03125 -0.734375 C 3.238281 -0.859375 3.394531 -1.015625 3.5 -1.203125 C 3.601562 -1.390625 3.65625 -1.585938 3.65625 -1.796875 L 3.65625 -2.484375 C 3.625 -2.453125 3.550781 -2.421875 3.4375 -2.390625 C 3.332031 -2.359375 3.207031 -2.328125 3.0625 -2.296875 C 2.925781 -2.273438 2.789062 -2.253906 2.65625 -2.234375 C 2.53125 -2.222656 2.425781 -2.210938 2.34375 -2.203125 C 2.144531 -2.179688 1.957031 -2.140625 1.78125 -2.078125 C 1.613281 -2.023438 1.476562 -1.941406 1.375 -1.828125 C 1.269531 -1.710938 1.21875 -1.554688 1.21875 -1.359375 C 1.21875 -1.097656 1.316406 -0.898438 1.515625 -0.765625 C 1.710938 -0.628906 1.960938 -0.5625 2.265625 -0.5625 Z M 2.265625 -0.5625 "/></g></g></g><g fill="#545454" fill-opacity="1"><g transform="translate(242.271168, 241.770745)"><g><path d="M 1.453125 -2.984375 L 1.453125 0 L 0.703125 0 L 0.703125 -4.953125 L 1.4375 -4.953125 L 1.4375 -4.171875 L 1.5 -4.171875 C 1.613281 -4.429688 1.785156 -4.632812 2.015625 -4.78125 C 2.253906 -4.9375 2.5625 -5.015625 2.9375 -5.015625 C 3.4375 -5.015625 3.835938 -4.859375 4.140625 -4.546875 C 4.453125 -4.242188 4.609375 -3.773438 4.609375 -3.140625 L 4.609375 0 L 3.859375 0 L 3.859375 -3.09375 C 3.859375 -3.476562 3.753906 -3.78125 3.546875 -4 C 3.347656 -4.21875 3.070312 -4.328125 2.71875 -4.328125 C 2.351562 -4.328125 2.050781 -4.207031 1.8125 -3.96875 C 1.570312 -3.738281 1.453125 -3.410156 1.453125 -2.984375 Z M 1.453125 -2.984375 "/></g></g></g><g fill="#545454" fill-opacity="1"><g transform="translate(248.695651, 241.770745)"><g><path d="M 0.703125 0 L 0.703125 -4.953125 L 1.453125 -4.953125 L 1.453125 0 Z M 1.078125 -5.78125 C 0.929688 -5.78125 0.804688 -5.828125 0.703125 -5.921875 C 0.597656 -6.023438 0.546875 -6.148438 0.546875 -6.296875 C 0.546875 -6.429688 0.597656 -6.550781 0.703125 -6.65625 C 0.804688 -6.757812 0.929688 -6.8125 1.078125 -6.8125 C 1.234375 -6.8125 1.363281 -6.757812 1.46875 -6.65625 C 1.570312 -6.550781 1.625 -6.429688 1.625 -6.296875 C 1.625 -6.148438 1.570312 -6.023438 1.46875 -5.921875 C 1.363281 -5.828125 1.234375 -5.78125 1.078125 -5.78125 Z M 1.078125 -5.78125 "/></g></g></g><g fill="#545454" fill-opacity="1"><g transform="translate(251.96358, 241.770745)"><g><path d="M 2.90625 -4.953125 L 2.90625 -4.3125 L 1.796875 -4.3125 L 1.796875 0 L 1.03125 0 L 1.03125 -4.3125 L 0.234375 -4.3125 L 0.234375 -4.953125 L 1.03125 -4.953125 L 1.03125 -5.640625 C 1.03125 -5.921875 1.097656 -6.15625 1.234375 -6.34375 C 1.367188 -6.53125 1.539062 -6.671875 1.75 -6.765625 C 1.957031 -6.859375 2.179688 -6.90625 2.421875 -6.90625 C 2.609375 -6.90625 2.757812 -6.890625 2.875 -6.859375 C 3 -6.835938 3.085938 -6.8125 3.140625 -6.78125 L 2.921875 -6.125 C 2.890625 -6.132812 2.835938 -6.148438 2.765625 -6.171875 C 2.703125 -6.191406 2.613281 -6.203125 2.5 -6.203125 C 2.25 -6.203125 2.066406 -6.140625 1.953125 -6.015625 C 1.847656 -5.890625 1.796875 -5.703125 1.796875 -5.453125 L 1.796875 -4.953125 Z M 2.90625 -4.953125 "/></g></g></g><g fill="#545454" fill-opacity="1"><g transform="translate(256.352401, 241.770745)"><g><path d="M 0.703125 0 L 0.703125 -4.953125 L 1.453125 -4.953125 L 1.453125 0 Z M 1.078125 -5.78125 C 0.929688 -5.78125 0.804688 -5.828125 0.703125 -5.921875 C 0.597656 -6.023438 0.546875 -6.148438 0.546875 -6.296875 C 0.546875 -6.429688 0.597656 -6.550781 0.703125 -6.65625 C 0.804688 -6.757812 0.929688 -6.8125 1.078125 -6.8125 C 1.234375 -6.8125 1.363281 -6.757812 1.46875 -6.65625 C 1.570312 -6.550781 1.625 -6.429688 1.625 -6.296875 C 1.625 -6.148438 1.570312 -6.023438 1.46875 -5.921875 C 1.363281 -5.828125 1.234375 -5.78125 1.078125 -5.78125 Z M 1.078125 -5.78125 "/></g></g></g><g fill="#545454" fill-opacity="1"><g transform="translate(259.62033, 241.770745)"><g><path d="M 2.703125 0.109375 C 2.242188 0.109375 1.84375 0 1.5 -0.21875 C 1.164062 -0.4375 0.910156 -0.738281 0.734375 -1.125 C 0.554688 -1.507812 0.46875 -1.953125 0.46875 -2.453125 C 0.46875 -2.953125 0.554688 -3.394531 0.734375 -3.78125 C 0.921875 -4.164062 1.179688 -4.46875 1.515625 -4.6875 C 1.859375 -4.90625 2.25 -5.015625 2.6875 -5.015625 C 3.039062 -5.015625 3.359375 -4.945312 3.640625 -4.8125 C 3.921875 -4.6875 4.148438 -4.507812 4.328125 -4.28125 C 4.503906 -4.050781 4.613281 -3.78125 4.65625 -3.46875 L 3.890625 -3.46875 C 3.835938 -3.695312 3.707031 -3.894531 3.5 -4.0625 C 3.300781 -4.238281 3.035156 -4.328125 2.703125 -4.328125 C 2.265625 -4.328125 1.90625 -4.15625 1.625 -3.8125 C 1.351562 -3.476562 1.21875 -3.03125 1.21875 -2.46875 C 1.21875 -1.894531 1.351562 -1.4375 1.625 -1.09375 C 1.894531 -0.75 2.253906 -0.578125 2.703125 -0.578125 C 3.003906 -0.578125 3.257812 -0.648438 3.46875 -0.796875 C 3.675781 -0.953125 3.816406 -1.164062 3.890625 -1.4375 L 4.65625 -1.4375 C 4.613281 -1.144531 4.503906 -0.882812 4.328125 -0.65625 C 4.160156 -0.425781 3.9375 -0.238281 3.65625 -0.09375 C 3.382812 0.0390625 3.066406 0.109375 2.703125 0.109375 Z M 2.703125 0.109375 "/></g></g></g><g fill="#545454" fill-opacity="1"><g transform="translate(265.800013, 241.770745)"><g><path d="M 2.15625 0.109375 C 1.84375 0.109375 1.554688 0.0507812 1.296875 -0.0625 C 1.046875 -0.175781 0.84375 -0.347656 0.6875 -0.578125 C 0.539062 -0.804688 0.46875 -1.082031 0.46875 -1.40625 C 0.46875 -1.6875 0.519531 -1.914062 0.625 -2.09375 C 0.738281 -2.269531 0.890625 -2.410156 1.078125 -2.515625 C 1.265625 -2.617188 1.472656 -2.691406 1.703125 -2.734375 C 1.929688 -2.785156 2.160156 -2.828125 2.390625 -2.859375 C 2.691406 -2.898438 2.9375 -2.929688 3.125 -2.953125 C 3.3125 -2.972656 3.445312 -3.003906 3.53125 -3.046875 C 3.613281 -3.097656 3.65625 -3.1875 3.65625 -3.3125 L 3.65625 -3.34375 C 3.65625 -3.65625 3.566406 -3.898438 3.390625 -4.078125 C 3.222656 -4.253906 2.96875 -4.34375 2.625 -4.34375 C 2.257812 -4.34375 1.972656 -4.265625 1.765625 -4.109375 C 1.554688 -3.953125 1.410156 -3.78125 1.328125 -3.59375 L 0.609375 -3.859375 C 0.734375 -4.160156 0.90625 -4.394531 1.125 -4.5625 C 1.34375 -4.726562 1.578125 -4.84375 1.828125 -4.90625 C 2.085938 -4.976562 2.34375 -5.015625 2.59375 -5.015625 C 2.75 -5.015625 2.929688 -4.992188 3.140625 -4.953125 C 3.347656 -4.921875 3.546875 -4.847656 3.734375 -4.734375 C 3.929688 -4.617188 4.09375 -4.441406 4.21875 -4.203125 C 4.351562 -3.972656 4.421875 -3.660156 4.421875 -3.265625 L 4.421875 0 L 3.65625 0 L 3.65625 -0.671875 L 3.625 -0.671875 C 3.570312 -0.566406 3.484375 -0.453125 3.359375 -0.328125 C 3.242188 -0.203125 3.082031 -0.0976562 2.875 -0.015625 C 2.675781 0.0664062 2.4375 0.109375 2.15625 0.109375 Z M 2.265625 -0.5625 C 2.566406 -0.5625 2.820312 -0.617188 3.03125 -0.734375 C 3.238281 -0.859375 3.394531 -1.015625 3.5 -1.203125 C 3.601562 -1.390625 3.65625 -1.585938 3.65625 -1.796875 L 3.65625 -2.484375 C 3.625 -2.453125 3.550781 -2.421875 3.4375 -2.390625 C 3.332031 -2.359375 3.207031 -2.328125 3.0625 -2.296875 C 2.925781 -2.273438 2.789062 -2.253906 2.65625 -2.234375 C 2.53125 -2.222656 2.425781 -2.210938 2.34375 -2.203125 C 2.144531 -2.179688 1.957031 -2.140625 1.78125 -2.078125 C 1.613281 -2.023438 1.476562 -1.941406 1.375 -1.828125 C 1.269531 -1.710938 1.21875 -1.554688 1.21875 -1.359375 C 1.21875 -1.097656 1.316406 -0.898438 1.515625 -0.765625 C 1.710938 -0.628906 1.960938 -0.5625 2.265625 -0.5625 Z M 2.265625 -0.5625 "/></g></g></g><g clip-path="url(#96b5243a3d)"><g mask="url(#f8efafb9ad)"><g transform="matrix(1, 0, 0, 1, 165, 124)"><g clip-path="url(#0cd10c2e34)"><g clip-path="url(#a65e5f9f15)"><path fill="#2a6095" d="M 0.476562 22.40625 C 0.476562 16.550781 2.757812 11.042969 6.894531 6.898438 C 11.167969 2.625 16.78125 0.488281 22.394531 0.488281 C 28.007812 0.488281 33.621094 2.625 37.890625 6.898438 L 54.90625 23.921875 C 59.042969 28.066406 61.324219 33.574219 61.324219 39.429688 C 61.324219 45.289062 59.042969 50.796875 54.90625 54.9375 C 46.359375 63.488281 32.453125 63.488281 23.90625 54.9375 L 6.894531 37.914062 C 2.753906 33.773438 0.476562 28.265625 0.476562 22.40625 Z M 0.476562 22.40625 " fill-opacity="1" fill-rule="nonzero"/></g></g></g></g></g><g clip-path="url(#777f267e90)"><g mask="url(#ade1888ccc)"><g transform="matrix(1, 0, 0, 1, 148, 124)"><g clip-path="url(#0cdd9a3511)"><g clip-path="url(#8a391e66db)"><path fill="#0a3f5f" d="M 0.34375 39.429688 C 0.34375 33.574219 2.625 28.066406 6.765625 23.921875 L 23.777344 6.898438 C 28.050781 2.625 33.664062 0.488281 39.273438 0.488281 C 44.886719 0.488281 50.5 2.625 54.773438 6.898438 C 58.914062 11.042969 61.191406 16.550781 61.191406 22.40625 C 61.191406 28.265625 58.914062 33.773438 54.773438 37.914062 L 37.761719 54.9375 C 29.214844 63.492188 15.308594 63.492188 6.765625 54.9375 C 2.625 50.796875 0.34375 45.289062 0.34375 39.429688 Z M 0.34375 39.429688 " fill-opacity="1" fill-rule="nonzero"/></g></g></g></g></g></svg>